<svg width="14" height="14" viewBox="0 0 14 14" fill="none" xmlns="http://www.w3.org/2000/svg">
<path d="M14 6.75C13.9964 6.00224 13.7363 5.27837 13.2632 4.69931C12.79 4.12026 12.1325 3.72109 11.4005 3.5685C11.1875 2.55939 10.634 1.65419 9.83295 1.00459C9.03188 0.354991 8.03187 0.000484467 7.00051 0.000484467C5.96916 0.000484467 4.96915 0.354991 4.16808 1.00459C3.36701 1.65419 2.81357 2.55939 2.60051 3.5685C1.8683 3.72089 1.21056 4.11997 0.737238 4.69905C0.263913 5.27812 0.00367352 6.0021 1.27277e-05 6.75C0.000254395 7.55489 0.301278 8.33063 0.844013 8.925C0.434024 9.34741 0.157772 9.88139 0.0498508 10.4601C-0.0580704 11.0388 0.0071367 11.6364 0.237306 12.1782C0.467476 12.72 0.852377 13.1819 1.34381 13.5059C1.83524 13.83 2.41136 14.0018 3.00001 14H8.50001C8.98512 14.002 9.46343 13.8859 9.89362 13.6617C10.3238 13.4375 10.6929 13.1119 10.9691 12.713C11.2452 12.3142 11.4201 11.8541 11.4787 11.3725C11.5372 10.891 11.4776 10.4024 11.305 9.949C12.0586 9.81789 12.7419 9.42535 13.2348 8.84038C13.7277 8.25541 13.9986 7.51544 14 6.7505V6.75ZM8.50001 13H3.00001C2.49916 13.0008 2.01629 12.8134 1.64719 12.4748C1.27808 12.1363 1.0497 11.6714 1.00734 11.1723C0.964991 10.6733 1.11176 10.1765 1.41853 9.78063C1.72531 9.38472 2.16969 9.11858 2.66351 9.035L2.99501 8.979L3.06801 8.651C3.2037 8.04071 3.54343 7.49493 4.03113 7.10376C4.51882 6.71259 5.12532 6.49941 5.75051 6.49941C6.3757 6.49941 6.98221 6.71259 7.4699 7.10376C7.9576 7.49493 8.29733 8.04071 8.43301 8.651L8.50551 8.979L8.83701 9.0355C9.33025 9.11975 9.77387 9.38613 10.08 9.78192C10.3862 10.1777 10.5326 10.674 10.4902 11.1726C10.4478 11.6712 10.2198 12.1357 9.85119 12.4741C9.48261 12.8125 9.00039 13.0002 8.50001 13V13ZM10.75 9H10.7225C10.3486 8.58144 9.86394 8.27708 9.32451 8.122C9.08521 7.36138 8.60953 6.69692 7.96663 6.22522C7.32373 5.75353 6.54714 5.49919 5.74976 5.49919C4.95238 5.49919 4.17579 5.75353 3.5329 6.22522C2.89 6.69692 2.41432 7.36138 2.17501 8.122C1.99726 8.17375 1.82468 8.24188 1.65951 8.3255C1.45112 8.11936 1.28556 7.87403 1.17238 7.60363C1.05919 7.33324 1.00061 7.04313 1.00001 6.75C1.00259 6.18507 1.21679 5.64162 1.60036 5.22686C1.98392 4.8121 2.50901 4.55615 3.07201 4.5095L3.48001 4.4775L3.52951 4.0715C3.63388 3.22451 4.04437 2.44492 4.68364 1.87958C5.32292 1.31424 6.14687 1.00217 7.00026 1.00217C7.85366 1.00217 8.6776 1.31424 9.31688 1.87958C9.95616 2.44492 10.3666 3.22451 10.471 4.0715L10.5205 4.4775L10.928 4.5095C11.5085 4.5537 12.0493 4.82133 12.4364 5.25609C12.8236 5.69085 13.0271 6.25885 13.0041 6.84057C12.981 7.4223 12.7332 7.97241 12.3128 8.37516C11.8924 8.7779 11.3322 9.00189 10.75 9V9Z" fill="#A6F6F1"/>
</svg>
