<svg width="16" height="16" viewBox="0 0 16 16" fill="none" xmlns="http://www.w3.org/2000/svg">
<path d="M11.75 11H4.25001C3.44821 10.9949 2.67659 10.6936 2.0835 10.154C1.49041 9.61446 1.11771 8.87468 1.03707 8.07694C0.956428 7.27919 1.17353 6.47979 1.64663 5.83243C2.11974 5.18506 2.81545 4.73544 3.60001 4.57C3.81586 3.56326 4.37042 2.66099 5.17116 2.01373C5.9719 1.36648 6.97038 1.0134 8.00001 1.0134C9.02963 1.0134 10.0281 1.36648 10.8288 2.01373C11.6296 2.66099 12.1842 3.56326 12.4 4.57C13.1846 4.73544 13.8803 5.18506 14.3534 5.83243C14.8265 6.47979 15.0436 7.27919 14.9629 8.07694C14.8823 8.87468 14.5096 9.61446 13.9165 10.154C13.3234 10.6936 12.5518 10.9949 11.75 11V11ZM8.00001 2C7.14682 2.00085 6.32332 2.31331 5.68432 2.87865C5.04532 3.44399 4.63483 4.22327 4.53001 5.07L4.50001 5.5H4.07001C3.47327 5.52387 2.91045 5.78381 2.50538 6.22265C2.1003 6.66148 1.88614 7.24326 1.91001 7.84C1.93387 8.43674 2.19382 8.99955 2.63265 9.40463C3.07149 9.80971 3.65327 10.0239 4.25001 10H11.75C12.3467 10.0239 12.9285 9.80971 13.3674 9.40463C13.8062 8.99955 14.0661 8.43674 14.09 7.84C14.1139 7.24326 13.8997 6.66148 13.4946 6.22265C13.0896 5.78381 12.5267 5.52387 11.93 5.5H11.5L11.45 5.09C11.3501 4.24306 10.9445 3.46172 10.3092 2.89274C9.67394 2.32377 8.85279 2.00631 8.00001 2V2Z" fill="#A6F6F1"/>
<path d="M7 15C6.92156 15.0009 6.84416 14.982 6.775 14.945C6.65724 14.8851 6.56799 14.7809 6.52677 14.6554C6.48555 14.5298 6.4957 14.3931 6.555 14.275L7.555 12.275C7.58143 12.2115 7.62067 12.1542 7.67027 12.1066C7.71986 12.0589 7.77874 12.0221 7.84324 11.9982C7.90773 11.9744 7.97644 11.9641 8.04509 11.968C8.11373 11.9719 8.18083 11.99 8.24219 12.021C8.30355 12.052 8.35785 12.0954 8.4017 12.1483C8.44555 12.2013 8.47801 12.2627 8.49704 12.3288C8.51607 12.3949 8.52128 12.4641 8.51232 12.5323C8.50337 12.6005 8.48045 12.6661 8.445 12.725L7.445 14.725C7.40345 14.8075 7.33988 14.8768 7.26133 14.9253C7.18279 14.9739 7.09234 14.9997 7 15V15Z" fill="black"/>
<path d="M10 15C9.92156 15.0009 9.84416 14.982 9.775 14.945C9.65724 14.8851 9.56799 14.7809 9.52677 14.6554C9.48555 14.5298 9.4957 14.3931 9.555 14.275L10.555 12.275C10.5814 12.2115 10.6207 12.1542 10.6703 12.1066C10.7199 12.0589 10.7787 12.0221 10.8432 11.9982C10.9077 11.9744 10.9764 11.9641 11.0451 11.968C11.1137 11.9719 11.1808 11.99 11.2422 12.021C11.3036 12.052 11.3579 12.0954 11.4017 12.1483C11.4456 12.2013 11.478 12.2627 11.497 12.3288C11.5161 12.3949 11.5213 12.4641 11.5123 12.5323C11.5034 12.6005 11.4805 12.6661 11.445 12.725L10.445 14.725C10.4035 14.8075 10.3399 14.8768 10.2613 14.9253C10.1828 14.9739 10.0923 14.9997 10 15V15Z" fill="black"/>
<path d="M4 15C3.92156 15.0009 3.84416 14.982 3.775 14.945C3.65724 14.8851 3.56799 14.7809 3.52677 14.6554C3.48555 14.5298 3.4957 14.3931 3.555 14.275L4.555 12.275C4.58143 12.2115 4.62067 12.1542 4.67027 12.1066C4.71986 12.0589 4.77874 12.0221 4.84324 11.9982C4.90773 11.9744 4.97644 11.9641 5.04509 11.968C5.11373 11.9719 5.18083 11.99 5.24219 12.021C5.30355 12.052 5.35785 12.0954 5.4017 12.1483C5.44555 12.2013 5.47801 12.2627 5.49704 12.3288C5.51607 12.3949 5.52128 12.4641 5.51232 12.5323C5.50337 12.6005 5.48045 12.6661 5.445 12.725L4.445 14.725C4.40345 14.8075 4.33988 14.8768 4.26133 14.9253C4.18279 14.9739 4.09234 14.9997 4 15V15Z" fill="black"/>
</svg>
